<svg width="24" height="24" viewBox="0 0 24 24" fill="none" xmlns="http://www.w3.org/2000/svg">
<path fill-rule="evenodd" clip-rule="evenodd" d="M3.32812 12C3.32812 7.21066 7.21066 3.32812 12 3.32812C16.7893 3.32812 20.6719 7.21066 20.6719 12V13.6406H19.7344V12C19.7344 7.72842 16.2716 4.26562 12 4.26562C7.72842 4.26562 4.26562 7.72842 4.26562 12V13.6406H3.32812V12Z" fill="black"/>
<path fill-rule="evenodd" clip-rule="evenodd" d="M4.6437 12.7969C4.69194 12.0639 5.30173 11.4844 6.04688 11.4844H7.45312C8.22978 11.4844 8.85938 12.114 8.85938 12.8906V18.7969C8.85938 19.5735 8.22978 20.2031 7.45312 20.2031H6.04688C5.30173 20.2031 4.69194 19.6236 4.6437 18.8906H4.17188C2.98101 18.8906 2.01562 17.9252 2.01562 16.7344V14.9531C2.01562 13.7623 2.98101 12.7969 4.17188 12.7969H4.6437ZM6.04688 12.4219H7.45312C7.71201 12.4219 7.92188 12.6317 7.92188 12.8906V18.7969C7.92188 19.0558 7.71201 19.2656 7.45312 19.2656H6.04688C5.78799 19.2656 5.57812 19.0558 5.57812 18.7969V12.8906C5.57812 12.6317 5.78799 12.4219 6.04688 12.4219ZM4.64062 13.7344H4.17188C3.49878 13.7344 2.95312 14.28 2.95312 14.9531V16.7344C2.95312 17.4075 3.49878 17.9531 4.17188 17.9531H4.64062V13.7344Z" fill="black"/>
<path fill-rule="evenodd" clip-rule="evenodd" d="M19.3563 12.7969C19.3081 12.0639 18.6983 11.4844 17.9531 11.4844H16.5469C15.7702 11.4844 15.1406 12.114 15.1406 12.8906V18.7969C15.1406 19.5735 15.7702 20.2031 16.5469 20.2031H17.9531C18.6983 20.2031 19.3081 19.6236 19.3563 18.8906H19.8281C21.019 18.8906 21.9844 17.9252 21.9844 16.7344V14.9531C21.9844 13.7623 21.019 12.7969 19.8281 12.7969H19.3563ZM17.9531 12.4219H16.5469C16.288 12.4219 16.0781 12.6317 16.0781 12.8906V18.7969C16.0781 19.0558 16.288 19.2656 16.5469 19.2656H17.9531C18.212 19.2656 18.4219 19.0558 18.4219 18.7969V12.8906C18.4219 12.6317 18.212 12.4219 17.9531 12.4219ZM19.3594 13.7344H19.8281C20.5012 13.7344 21.0469 14.28 21.0469 14.9531V16.7344C21.0469 17.4075 20.5012 17.9531 19.8281 17.9531H19.3594V13.7344Z" fill="black"/>
</svg>
