<svg width="24" height="24" viewBox="0 0 24 24" fill="none" xmlns="http://www.w3.org/2000/svg">
<path fill-rule="evenodd" clip-rule="evenodd" d="M17.2115 2.66064C18.1478 1.77979 19.6657 1.77979 20.602 2.66064L22.2977 4.25601C23.2341 5.13695 23.2341 6.56528 22.2977 7.44621L13.2903 15.9205C12.7824 16.3984 12.1577 16.7518 11.471 16.95L8.06908 17.9317C6.84167 18.2859 5.69327 17.2024 6.07427 16.0482L7.1452 12.8038C7.35672 12.163 7.73074 11.5803 8.23501 11.1059L17.2115 2.66064ZM20.0378 3.19188C19.4131 2.60424 18.4004 2.60424 17.7758 3.19189L17.3945 3.55056L21.3521 7.27385L21.7335 6.91497C22.358 6.3274 22.358 5.37483 21.7335 4.78726L20.0378 3.19188ZM20.7876 7.80488L16.8301 4.0816L9.41987 11.0532C11.2889 11.6354 12.7585 13.018 13.3773 14.7766L20.7876 7.80488ZM12.7335 15.3823C12.2473 13.5494 10.7245 12.1166 8.77604 11.6591C8.37506 12.0434 8.07719 12.5121 7.90736 13.0266L6.83643 16.271C6.64591 16.8482 7.22019 17.3911 7.83512 17.2136L11.2371 16.2319C11.7991 16.0697 12.3104 15.7803 12.7261 15.3893L12.7335 15.3823Z" fill="black"/>
<path d="M10 5.5H7.5C4.73858 5.5 2.5 7.73858 2.5 10.5V16.5C2.5 19.2614 4.73858 21.5 7.5 21.5H13.5C16.2614 21.5 18.5 19.2614 18.5 16.5V13.5" stroke="black" stroke-width="0.8" stroke-linecap="round"/>
</svg>
