<svg width="36" height="37" viewBox="0 0 36 37" fill="none" xmlns="http://www.w3.org/2000/svg">
<path d="M19.4652 12.2384C19.4652 12.464 19.4652 13.1993 19.4652 14.244H23.0569L22.6674 17.4457H19.4652C19.4652 22.3833 19.4652 29 19.4652 29H15.2148C15.2148 29 15.2148 22.4709 15.2148 17.4457H13V14.244H15.2148C15.2148 12.9742 15.2148 12.0714 15.2148 11.82C15.2148 10.6223 15.1245 10.054 15.6335 9.12583C16.1426 8.19774 17.5789 6.97099 20.063 7.00052C22.5477 7.03113 23.5951 7.27016 23.5951 7.27016L23.0569 10.6824C23.0569 10.6824 21.4702 10.2635 20.6914 10.4128C19.9137 10.5621 19.4652 11.0412 19.4652 12.2384Z" fill="black"/>
</svg>
