<svg width="36" height="37" viewBox="0 0 36 37" fill="none" xmlns="http://www.w3.org/2000/svg">
<path d="M18 8.162C21.204 8.162 21.584 8.174 22.849 8.232C24.157 8.292 25.504 8.59 26.457 9.543C27.419 10.505 27.708 11.839 27.768 13.151C27.826 14.416 27.838 14.796 27.838 18C27.838 21.204 27.826 21.584 27.768 22.849C27.709 24.15 27.404 25.51 26.457 26.457C25.495 27.419 24.162 27.708 22.849 27.768C21.584 27.826 21.204 27.838 18 27.838C14.796 27.838 14.416 27.826 13.151 27.768C11.86 27.709 10.482 27.397 9.543 26.457C8.586 25.5 8.292 24.153 8.232 22.849C8.174 21.584 8.162 21.204 8.162 18C8.162 14.796 8.174 14.416 8.232 13.151C8.291 11.855 8.599 10.487 9.543 9.543C10.503 8.583 11.842 8.292 13.151 8.232C14.416 8.174 14.796 8.162 18 8.162ZM18 6C14.741 6 14.332 6.014 13.052 6.072C11.197 6.157 9.355 6.673 8.014 8.014C6.668 9.36 6.157 11.198 6.072 13.052C6.014 14.332 6 14.741 6 18C6 21.259 6.014 21.668 6.072 22.948C6.157 24.801 6.675 26.648 8.014 27.986C9.359 29.331 11.2 29.843 13.052 29.928C14.332 29.986 14.741 30 18 30C21.259 30 21.668 29.986 22.948 29.928C24.802 29.843 26.646 29.326 27.986 27.986C29.333 26.639 29.843 24.802 29.928 22.948C29.986 21.668 30 21.259 30 18C30 14.741 29.986 14.332 29.928 13.052C29.843 11.197 29.326 9.354 27.986 8.014C26.643 6.671 24.797 6.156 22.948 6.072C21.668 6.014 21.259 6 18 6Z" fill="black"/>
<path d="M17.9999 11.838C14.5969 11.838 11.8379 14.597 11.8379 18C11.8379 21.403 14.5969 24.162 17.9999 24.162C21.4029 24.162 24.1619 21.403 24.1619 18C24.1619 14.597 21.4029 11.838 17.9999 11.838ZM17.9999 22C15.7909 22 13.9999 20.209 13.9999 18C13.9999 15.791 15.7909 14 17.9999 14C20.2089 14 21.9999 15.791 21.9999 18C21.9999 20.209 20.2089 22 17.9999 22Z" fill="black"/>
<path d="M24.4061 13.0341C25.2014 13.0341 25.8461 12.3893 25.8461 11.5941C25.8461 10.7988 25.2014 10.1541 24.4061 10.1541C23.6108 10.1541 22.9661 10.7988 22.9661 11.5941C22.9661 12.3893 23.6108 13.0341 24.4061 13.0341Z" fill="black"/>
</svg>
