<svg width="25" height="28" viewBox="0 0 25 28" fill="none" xmlns="http://www.w3.org/2000/svg">
<path fill-rule="evenodd" clip-rule="evenodd" d="M14.9262 24.6667C17.8618 24.6667 20.2036 22.3263 20.9883 18.2909C21.8837 13.6865 19.9402 8.27401 16.2602 4.65757C16.1841 4.99908 16.0916 5.33507 15.984 5.66584C15.3156 7.71976 14.101 9.43889 13.0104 10.8702C12.77 11.1859 12.5361 11.4892 12.3099 11.7825C10.3081 14.3786 8.912 16.1891 8.912 18.7883C8.912 22.037 11.6069 24.6667 14.9262 24.6667ZM13.7737 2.67353C13.6661 5.62845 11.9065 7.88821 10.1084 10.1974C8.16682 12.6909 6.18033 15.242 6.18033 18.7883C6.18033 23.5076 10.096 27.3333 14.9262 27.3333C19.7564 27.3333 22.7704 23.4246 23.672 18.7883C24.8778 12.5876 21.8667 5.38098 16.4516 1.26621C16.3708 1.20482 16.2894 1.14411 16.2076 1.08411C15.1599 0.316153 13.8202 1.39537 13.7737 2.67353Z" fill="#FFA800"/>
<path fill-rule="evenodd" clip-rule="evenodd" d="M8.77373 0.0852547C9.48003 -0.173302 10.2673 0.176034 10.5322 0.865519C11.1517 2.47828 10.6371 4.16844 9.7986 5.80833C8.94631 7.47517 7.56823 9.4436 5.93997 11.7556C2.53225 16.5942 3.54408 22.8744 6.46327 25.7238C6.99669 26.2445 6.99673 27.0887 6.46337 27.6094C5.93 28.1302 5.0652 28.1302 4.53179 27.6095C0.62113 23.7924 -0.415478 16.0728 3.68896 10.2449C5.35496 7.8793 6.60606 6.08111 7.35449 4.6174C8.11671 3.12672 8.1744 2.32238 7.97444 1.80184C7.70958 1.11235 8.06743 0.343812 8.77373 0.0852547Z" fill="#FFA800"/>
</svg>
