<svg width="24" height="24" viewBox="0 0 24 24" fill="none" xmlns="http://www.w3.org/2000/svg">
<path d="M13 11.8357C13 11.9264 13.1001 12 13.2236 12H13.7764C13.8999 12 14 11.9264 14 11.8357V11.1643C14 11.0736 13.8999 11 13.7764 11H13.2236C13.1001 11 13 11.0736 13 11.1643V11.8357Z" fill="white"/>
<path fill-rule="evenodd" clip-rule="evenodd" d="M5.67188 5.29688C5.67188 3.48469 7.14094 2.01562 8.95312 2.01562H17.0625C18.8747 2.01562 20.3438 3.48469 20.3438 5.29688V18.7031C20.3438 20.5153 18.8747 21.9844 17.0625 21.9844H8.95312C7.14094 21.9844 5.67188 20.5153 5.67188 18.7031V5.29688ZM8.95312 2.95312C7.65871 2.95312 6.60938 4.00246 6.60938 5.29688V18.7031C6.60938 19.9975 7.65871 21.0469 8.95312 21.0469H17.0625C18.3569 21.0469 19.4062 19.9975 19.4062 18.7031V5.29688C19.4062 4.00246 18.3569 2.95312 17.0625 2.95312H8.95312Z" fill="black"/>
<path d="M11.1094 7.26562C11.1094 7.00674 11.3192 6.79688 11.5781 6.79688H16.6406C16.8995 6.79688 17.1094 7.00674 17.1094 7.26562C17.1094 7.52451 16.8995 7.73438 16.6406 7.73438H11.5781C11.3192 7.73438 11.1094 7.52451 11.1094 7.26562Z" fill="black"/>
<path d="M11.1094 11.9062C11.1094 11.6474 11.3192 11.4375 11.5781 11.4375H13.8281C14.087 11.4375 14.2969 11.6474 14.2969 11.9062C14.2969 12.1651 14.087 12.375 13.8281 12.375H11.5781C11.3192 12.375 11.1094 12.1651 11.1094 11.9062Z" fill="black"/>
<path d="M11.1094 16.5469C11.1094 16.288 11.3192 16.0781 11.5781 16.0781H15.2812C15.5401 16.0781 15.75 16.288 15.75 16.5469C15.75 16.8058 15.5401 17.0156 15.2812 17.0156H11.5781C11.3192 17.0156 11.1094 16.8058 11.1094 16.5469Z" fill="black"/>
<path d="M4.54688 6.46875C4.54688 6.20987 4.75674 6 5.01562 6H7.21875C7.47763 6 7.6875 6.20987 7.6875 6.46875C7.6875 6.72763 7.47763 6.9375 7.21875 6.9375H5.01562C4.75674 6.9375 4.54688 6.72763 4.54688 6.46875Z" fill="black"/>
<path d="M4.54688 10.1719C4.54688 9.91299 4.75674 9.70312 5.01562 9.70312H7.21875C7.47763 9.70312 7.6875 9.91299 7.6875 10.1719C7.6875 10.4308 7.47763 10.6406 7.21875 10.6406H5.01562C4.75674 10.6406 4.54688 10.4308 4.54688 10.1719Z" fill="black"/>
<path d="M4.54688 13.875C4.54688 13.6161 4.75674 13.4062 5.01562 13.4062H7.21875C7.47763 13.4062 7.6875 13.6161 7.6875 13.875C7.6875 14.1339 7.47763 14.3438 7.21875 14.3438H5.01562C4.75674 14.3438 4.54688 14.1339 4.54688 13.875Z" fill="black"/>
<path d="M4.54688 17.5781C4.54688 17.3192 4.75674 17.1094 5.01562 17.1094H7.21875C7.47763 17.1094 7.6875 17.3192 7.6875 17.5781C7.6875 17.837 7.47763 18.0469 7.21875 18.0469H5.01562C4.75674 18.0469 4.54688 17.837 4.54688 17.5781Z" fill="black"/>
</svg>
