<svg width="25" height="24" viewBox="0 0 25 24" fill="none" xmlns="http://www.w3.org/2000/svg">
<path d="M12.072 12.0237C12.0106 11.9695 11.914 12.0145 11.9162 12.0963L11.9194 12.2217C11.9199 12.2387 11.911 12.2546 11.8964 12.2632L11.7882 12.3269C11.7177 12.3684 11.7306 12.4739 11.8089 12.4973L11.5165 12.8734C11.4922 12.9046 11.495 12.949 11.523 12.977C11.551 13.005 11.5955 13.0078 11.6267 12.9835L11.9919 12.7001C12.0157 12.7717 12.1135 12.7875 12.1579 12.723L12.229 12.6196C12.2387 12.6056 12.2552 12.5979 12.2721 12.5996L12.3971 12.6115C12.4786 12.6194 12.5303 12.5263 12.4804 12.4613L12.404 12.3618C12.3937 12.3483 12.3914 12.3302 12.3982 12.3146L12.4482 12.1996C12.4809 12.1246 12.4082 12.0467 12.331 12.074L12.2127 12.1158C12.1966 12.1215 12.1787 12.118 12.166 12.1068L12.072 12.0237Z" fill="white"/>
<path fill-rule="evenodd" clip-rule="evenodd" d="M14.4165 2.46536C13.189 1.37993 11.2577 2.28052 11.3001 3.91856L11.3652 6.42838C11.374 6.76888 11.1974 7.08737 10.904 7.26032L8.7411 8.53516C7.33108 9.36624 7.58858 11.4775 9.15478 11.9465L3.30646 19.4756C2.82059 20.1011 2.87624 20.9904 3.4363 21.5505C3.99636 22.1105 4.88572 22.1662 5.51122 21.6803L12.8149 16.0071C13.2919 17.4397 15.2466 17.757 16.1354 16.4646L17.558 14.3959C17.751 14.1152 18.0811 13.9613 18.4201 13.9939L20.9193 14.2338C22.5504 14.3905 23.5835 12.5267 22.5863 11.2264L21.0585 9.23415C20.8512 8.96387 20.8068 8.60243 20.9426 8.29004L21.9431 5.98734C22.596 4.48447 21.1427 2.92597 19.598 3.47253L17.2311 4.30996C16.91 4.42357 16.5525 4.35409 16.2974 4.12846L14.4165 2.46536ZM12.5809 15.0017L12.216 13.3575C12.1421 13.025 11.8938 12.7587 11.5672 12.6618L10.1197 12.2326L4.04684 20.0507C3.85087 20.3029 3.87331 20.6617 4.09921 20.8876C4.32511 21.1135 4.68382 21.1359 4.93612 20.9399L12.5809 15.0017ZM12.2373 3.89427C12.2161 3.07525 13.1818 2.62496 13.7955 3.16767L15.6763 4.83078C16.1867 5.28203 16.9016 5.42099 17.5438 5.19377L19.9107 4.35634C20.683 4.08306 21.4097 4.86231 21.0832 5.61374L20.0827 7.91645C19.8113 8.54123 19.9 9.2641 20.3146 9.80466L21.8424 11.7969C22.341 12.447 21.8244 13.3789 21.0089 13.3006L18.5097 13.0607C17.8316 12.9956 17.1716 13.3034 16.7856 13.8647L15.3629 15.9334C14.8987 16.6085 13.8528 16.4052 13.6753 15.6053L13.1312 13.1543C12.9836 12.4893 12.4869 11.9567 11.8337 11.763L9.42667 11.0493C8.64117 10.8164 8.51132 9.75883 9.21714 9.34281L11.3801 8.06796C11.9669 7.72206 12.32 7.08508 12.3024 6.4041L12.2373 3.89427Z" fill="black"/>
</svg>
