<svg width="25" height="24" viewBox="0 0 25 24" fill="none" xmlns="http://www.w3.org/2000/svg">
<path d="M12.4093 12.2113V12.7249H12.4729C12.4879 12.7249 12.5 12.7354 12.5 12.7483V12.8498C12.5 12.9327 12.4223 13 12.3266 13H11.6748C11.5783 13 11.5 12.9325 11.5 12.849V12.2113C11.5 12.0946 11.6092 12 11.7439 12H12.1654C12.3001 12 12.4093 12.0946 12.4093 12.2113Z" fill="white"/>
<path fill-rule="evenodd" clip-rule="evenodd" d="M7.59375 2.95312C5.78157 2.95312 4.3125 4.42219 4.3125 6.23438V18.9692C4.3125 20.1152 5.24499 21.0469 6.3985 21.0469C7.55201 21.0469 8.4845 20.1152 8.4845 18.9692V16.9588C8.4845 16.7 8.69437 16.4901 8.95325 16.4901H18.1657V6.23438C18.1657 4.42219 16.6966 2.95312 14.8844 2.95312H7.59375ZM19.1032 16.4901V6.23438C19.1032 3.90442 17.2144 2.01562 14.8844 2.01562H7.59375C5.2638 2.01562 3.375 3.90443 3.375 6.23438V18.9692C3.375 20.6359 4.73011 21.9844 6.3985 21.9844H17.6719C19.3287 21.9844 20.6719 20.6412 20.6719 18.9844V16.9588C20.6719 16.7 20.462 16.4901 20.2031 16.4901H19.1032ZM8.58962 21.0469H17.6719C18.811 21.0469 19.7344 20.1235 19.7344 18.9844V17.4276H9.422V18.9692C9.422 19.7749 9.10531 20.5063 8.58962 21.0469Z" fill="black"/>
<path d="M6.70312 8.01562C6.70312 7.75674 6.91299 7.54688 7.17188 7.54688H15.1875C15.4464 7.54688 15.6562 7.75674 15.6562 8.01562C15.6562 8.27451 15.4464 8.48438 15.1875 8.48438H7.17187C6.91299 8.48438 6.70312 8.27451 6.70312 8.01562Z" fill="black"/>
<path d="M6.70312 13.125C6.70312 12.8661 6.91299 12.6562 7.17188 12.6562H12.0469C12.3058 12.6562 12.5156 12.8661 12.5156 13.125C12.5156 13.3839 12.3058 13.5938 12.0469 13.5938H7.17187C6.91299 13.5938 6.70312 13.3839 6.70312 13.125Z" fill="black"/>
</svg>
