<svg width="24" height="24" viewBox="0 0 24 24" fill="none" xmlns="http://www.w3.org/2000/svg">
<path d="M3.33344 8.2286C2.49731 8.94109 2.01562 9.98437 2.01562 11.0829V18.2343C2.01562 20.3054 3.69456 21.9843 5.76562 21.9843H18.2344C20.3054 21.9843 21.9844 20.3054 21.9844 18.2343V11.0829C21.9844 9.98437 21.5027 8.94109 20.6666 8.2286L14.4322 2.91621C13.0306 1.72194 10.9694 1.72194 9.56782 2.91621L3.33344 8.2286Z" fill="#FFA800"/>
<path fill-rule="evenodd" clip-rule="evenodd" d="M21.0469 18.2343V11.0829C21.0469 10.259 20.6856 9.47654 20.0585 8.94218L13.8241 3.62979C12.773 2.73408 11.227 2.73408 10.1759 3.62979L3.94149 8.94218C3.31439 9.47654 2.95312 10.259 2.95312 11.0829V18.2343C2.95312 19.7876 4.21232 21.0468 5.76562 21.0468H18.2344C19.7877 21.0468 21.0469 19.7876 21.0469 18.2343ZM3.33344 8.2286C2.49731 8.94109 2.01562 9.98437 2.01562 11.0829V18.2343C2.01562 20.3054 3.69456 21.9843 5.76562 21.9843H18.2344C20.3054 21.9843 21.9844 20.3054 21.9844 18.2343V11.0829C21.9844 9.98437 21.5027 8.94109 20.6666 8.2286L14.4322 2.91621C13.0306 1.72194 10.9694 1.72194 9.56782 2.91621L3.33344 8.2286Z" fill="black"/>
<path fill-rule="evenodd" clip-rule="evenodd" d="M11.625 15.0938C10.3306 15.0938 9.28125 16.1431 9.28125 17.4375V21.1875H8.34375V17.4375C8.34375 15.6253 9.81282 14.1562 11.625 14.1562H12.0938C13.9059 14.1562 15.375 15.6253 15.375 17.4375V21.1875H14.4375V17.4375C14.4375 16.1431 13.3882 15.0938 12.0938 15.0938H11.625Z" fill="black"/>
</svg>
