<svg width="25" height="24" viewBox="0 0 25 24" fill="none" xmlns="http://www.w3.org/2000/svg">
<path d="M12.6878 12C12.5841 12 12.5 12.0898 12.5 12.2005V12.7995C12.5 12.9102 12.5841 13 12.6878 13H13.3122C13.4159 13 13.5 12.9102 13.5 12.7995V12.2005C13.5 12.0898 13.4159 12 13.3122 12H12.6878Z" fill="white"/>
<path fill-rule="evenodd" clip-rule="evenodd" d="M19.2344 4.21875H6.76562C5.21232 4.21875 3.95312 5.47795 3.95312 7.03125V18.2344C3.95312 19.7877 5.21232 21.0469 6.76562 21.0469H19.2344C20.7877 21.0469 22.0469 19.7877 22.0469 18.2344V7.03125C22.0469 5.47795 20.7877 4.21875 19.2344 4.21875ZM6.76562 3.28125C4.69456 3.28125 3.01562 4.96018 3.01562 7.03125V18.2344C3.01562 20.3054 4.69456 21.9844 6.76562 21.9844H19.2344C21.3054 21.9844 22.9844 20.3054 22.9844 18.2344V7.03125C22.9844 4.96018 21.3054 3.28125 19.2344 3.28125H6.76562Z" fill="black"/>
<path d="M3.8125 6.9375H22.2344V7.875H3.8125V6.9375Z" fill="black"/>
<path fill-rule="evenodd" clip-rule="evenodd" d="M8.45312 11.25H7.42188C7.16299 11.25 6.95312 11.4599 6.95312 11.7187V12.2344C6.95312 12.4933 7.16299 12.7031 7.42188 12.7031H8.45312C8.71201 12.7031 8.92188 12.4933 8.92188 12.2344V11.7188C8.92188 11.4599 8.71201 11.25 8.45312 11.25ZM7.42188 10.3125C6.64522 10.3125 6.01562 10.9421 6.01562 11.7187V12.2344C6.01562 13.011 6.64522 13.6406 7.42188 13.6406H8.45312C9.22978 13.6406 9.85938 13.011 9.85938 12.2344V11.7188C9.85938 10.9421 9.22978 10.3125 8.45312 10.3125H7.42188Z" fill="black"/>
<path fill-rule="evenodd" clip-rule="evenodd" d="M13.5156 11.25H12.4844C12.2255 11.25 12.0156 11.4599 12.0156 11.7187V12.2344C12.0156 12.4933 12.2255 12.7031 12.4844 12.7031H13.5156C13.7745 12.7031 13.9844 12.4933 13.9844 12.2344V11.7188C13.9844 11.4599 13.7745 11.25 13.5156 11.25ZM12.4844 10.3125C11.7077 10.3125 11.0781 10.9421 11.0781 11.7187V12.2344C11.0781 13.011 11.7077 13.6406 12.4844 13.6406H13.5156C14.2923 13.6406 14.9219 13.011 14.9219 12.2344V11.7188C14.9219 10.9421 14.2923 10.3125 13.5156 10.3125H12.4844Z" fill="black"/>
<path fill-rule="evenodd" clip-rule="evenodd" d="M18.5781 11.25H17.5469C17.288 11.25 17.0781 11.4599 17.0781 11.7187V12.2344C17.0781 12.4933 17.288 12.7031 17.5469 12.7031H18.5781C18.837 12.7031 19.0469 12.4933 19.0469 12.2344V11.7188C19.0469 11.4599 18.837 11.25 18.5781 11.25ZM17.5469 10.3125C16.7702 10.3125 16.1406 10.9421 16.1406 11.7187V12.2344C16.1406 13.011 16.7702 13.6406 17.5469 13.6406H18.5781C19.3548 13.6406 19.9844 13.011 19.9844 12.2344V11.7188C19.9844 10.9421 19.3548 10.3125 18.5781 10.3125H17.5469Z" fill="black"/>
<path fill-rule="evenodd" clip-rule="evenodd" d="M8.45312 16.3125H7.42188C7.16299 16.3125 6.95312 16.5224 6.95312 16.7812V17.2969C6.95312 17.5558 7.16299 17.7656 7.42188 17.7656H8.45312C8.71201 17.7656 8.92188 17.5558 8.92188 17.2969V16.7812C8.92188 16.5224 8.71201 16.3125 8.45312 16.3125ZM7.42188 15.375C6.64522 15.375 6.01562 16.0046 6.01562 16.7812V17.2969C6.01562 18.0735 6.64522 18.7031 7.42188 18.7031H8.45312C9.22978 18.7031 9.85938 18.0735 9.85938 17.2969V16.7812C9.85938 16.0046 9.22978 15.375 8.45312 15.375H7.42188Z" fill="black"/>
<path fill-rule="evenodd" clip-rule="evenodd" d="M13.5156 16.3125H12.4844C12.2255 16.3125 12.0156 16.5224 12.0156 16.7812V17.2969C12.0156 17.5558 12.2255 17.7656 12.4844 17.7656H13.5156C13.7745 17.7656 13.9844 17.5558 13.9844 17.2969V16.7812C13.9844 16.5224 13.7745 16.3125 13.5156 16.3125ZM12.4844 15.375C11.7077 15.375 11.0781 16.0046 11.0781 16.7812V17.2969C11.0781 18.0735 11.7077 18.7031 12.4844 18.7031H13.5156C14.2923 18.7031 14.9219 18.0735 14.9219 17.2969V16.7812C14.9219 16.0046 14.2923 15.375 13.5156 15.375H12.4844Z" fill="black"/>
<path d="M8.40625 2.48437C8.40625 2.22549 8.61612 2.01562 8.875 2.01562C9.13388 2.01562 9.34375 2.22549 9.34375 2.48438V5.0625C9.34375 5.32138 9.13388 5.53125 8.875 5.53125C8.61612 5.53125 8.40625 5.32138 8.40625 5.0625V2.48437Z" fill="black"/>
<path d="M16.5625 2.48437C16.5625 2.22549 16.7724 2.01562 17.0312 2.01562C17.2901 2.01562 17.5 2.22549 17.5 2.48438V5.0625C17.5 5.32138 17.2901 5.53125 17.0312 5.53125C16.7724 5.53125 16.5625 5.32138 16.5625 5.0625V2.48437Z" fill="black"/>
</svg>
